<svg xmlns="http://www.w3.org/2000/svg" width="854.644" height="359.494" viewBox="0 0 854.644 359.494">
  <g id="Group_48" data-name="Group 48" transform="translate(-3670 510)">
    <path id="Union_12" data-name="Union 12" d="M50.252,307.629a20.62,20.62,0,0,1-7.586-1.426,19.583,19.583,0,0,1-6.195-3.886,18.073,18.073,0,0,1-4.177-5.764,16.93,16.93,0,0,1-1.532-7.058V262.942H6.783a6.483,6.483,0,0,1-6.7-6.227V242.581c-.057-.431-.079-.715-.086-.814V17.076a13.577,13.577,0,0,1,2.969-8.6A20.212,20.212,0,0,1,9.5,3.263,34.6,34.6,0,0,1,19,0h254.56a29.691,29.691,0,0,1,11.495,3.37,19.113,19.113,0,0,1,6.2,5.432,16.085,16.085,0,0,1,3.016,7.279c.05,2.1,1.244,52.048,1.838,103.874.355,31.06.433,56.768.23,76.413q-.032,3.078-.073,5.961a5.809,5.809,0,0,1,.053.786v53.6a6.482,6.482,0,0,1-6.7,6.227H264.875v22.531a18.728,18.728,0,0,1-1.692,7.8,19.961,19.961,0,0,1-4.616,6.372,21.618,21.618,0,0,1-6.847,4.295,22.789,22.789,0,0,1-8.387,1.575h-8.3a20.616,20.616,0,0,1-7.585-1.425,19.574,19.574,0,0,1-6.2-3.887,18.073,18.073,0,0,1-4.177-5.764,16.951,16.951,0,0,1-1.532-7.059V262.942H80.092v24.671a18.7,18.7,0,0,1-1.693,7.8,19.915,19.915,0,0,1-4.615,6.361,21.618,21.618,0,0,1-6.848,4.286,22.851,22.851,0,0,1-8.386,1.57Zm167.979-64.2.039,0,.061,0q1.007.063,2.026.063a31.25,31.25,0,0,0,11.49-2.158l.162-.064.052-.022.109-.044.06-.024.1-.041.063-.026.1-.04.069-.029.091-.039.073-.031.085-.036.08-.035.077-.034.082-.036.076-.034.086-.039.07-.031.087-.041.069-.031.089-.041.066-.031.093-.043.06-.029.1-.048.051-.024.1-.049.051-.025.106-.052.044-.022.11-.055.041-.02.114-.059.033-.016.12-.061.03-.015.124-.065.022-.011.131-.069.014-.007.139-.074h0a29.65,29.65,0,0,0,3-1.842l0,0,.13-.092.011-.007.122-.087.018-.013.117-.085.021-.015.111-.081.032-.023.1-.074.041-.031.09-.068c.018-.013.035-.026.052-.04l.08-.06.06-.046.071-.055.075-.057.056-.044.094-.073.036-.028.121-.1.008-.006q.743-.593,1.447-1.232l0,0,.011-.01.139-.128.105-.1.039-.036.087-.082q.535-.5,1.039-1.029l0,0,.035-.036.028-.03.009-.01a27.108,27.108,0,0,0,5.084-7.5,25.661,25.661,0,0,0,2.32-10.692q0-.9-.061-1.794a25.746,25.746,0,0,0-.793-4.794h0a25.892,25.892,0,0,0-1.467-4.1,27.35,27.35,0,0,0-6.326-8.731,29.649,29.649,0,0,0-9.383-5.887,31.669,31.669,0,0,0-22.981,0,29.643,29.643,0,0,0-9.383,5.887c-.1.092-.2.184-.292.276a28.379,28.379,0,0,0-2.631,2.885,26.907,26.907,0,0,0-3.4,5.569,25.657,25.657,0,0,0-2.319,10.522c0,.014,0,.028,0,.041v.128c0,.087,0,.174,0,.26a25.639,25.639,0,0,0,1.816,9.25q.236.594.5,1.181a27.344,27.344,0,0,0,6.326,8.731,29.637,29.637,0,0,0,9.383,5.887l.1.04h0a30.943,30.943,0,0,0,6.579,1.758v0C216.43,243.271,217.327,243.369,218.23,243.429ZM71.467,190.723a29.639,29.639,0,0,0-9.383,5.887,27.354,27.354,0,0,0-6.326,8.731A25.8,25.8,0,0,0,54,210.65q-.1.45-.175.9h0a25.547,25.547,0,0,0-.372,3.494c0,.014,0,.027,0,.04s0,.038,0,.057c-.01.294-.015.59-.015.887,0,.052,0,.1,0,.157v.058c0,.175,0,.352.01.527a26.349,26.349,0,0,0,7.247,17.3h0l.046.049q.645.684,1.343,1.334.883.821,1.827,1.565l.044.034.053.042.022.018a29.8,29.8,0,0,0,4.311,2.789l.013.006.108.058.123.064,0,0a30.675,30.675,0,0,0,2.877,1.307q.81.319,1.634.59l.013,0,.049.016a31.3,31.3,0,0,0,6.929,1.42q1.422.127,2.866.127a31.235,31.235,0,0,0,11.49-2.158,29.626,29.626,0,0,0,9.382-5.886,27.335,27.335,0,0,0,6.326-8.732,25.854,25.854,0,0,0,2.136-13.788l-.005-.047c0-.011,0-.022,0-.032q-.092-.74-.225-1.47c0-.007,0-.014,0-.022l-.011-.055-.011-.062,0-.013a25.791,25.791,0,0,0-1.874-5.893,26.85,26.85,0,0,0-3.536-5.738,28.3,28.3,0,0,0-1.932-2.163l-.027-.027-.027-.027q-.393-.394-.8-.777a29.629,29.629,0,0,0-9.382-5.887,31.666,31.666,0,0,0-22.981,0ZM28.328,31.237A10.535,10.535,0,0,0,24.881,39v78.215a10.5,10.5,0,0,0,3.446,7.74,12.145,12.145,0,0,0,8.319,3.206H259.78a12.146,12.146,0,0,0,8.319-3.206,10.507,10.507,0,0,0,3.445-7.74V38.973a10.507,10.507,0,0,0-3.445-7.739,12.145,12.145,0,0,0-8.319-3.207H36.646A12.139,12.139,0,0,0,28.328,31.237ZM71.387,18.41H225.045V12.358H71.387ZM245.372,98.132l-7.579-10.865a12.891,12.891,0,0,1-1.431.053h-8.374V98.132H221.1v-37.1h15.264c9.751,0,15.793,4.981,15.793,13.2a11.862,11.862,0,0,1-7.9,11.714l8.533,12.19ZM227.988,81.649h8.056c6.043,0,9.169-2.757,9.169-7.421s-3.127-7.367-9.169-7.367h-8.056Zm-42.4,16.483v-37.1h27.083v5.777H192.479v9.645h17.914v5.672H192.479V92.354h20.935v5.777Zm-26.871,0L142.5,61.032h7.474l12.349,28.62,12.455-28.62h6.89L165.5,98.132Zm-27.613,0v-37.1h6.89v37.1Zm-14.468,0-7.58-10.865a12.891,12.891,0,0,1-1.431.053H99.251V98.132h-6.89v-37.1h15.264c9.752,0,15.794,4.981,15.794,13.2a11.862,11.862,0,0,1-7.9,11.714l8.533,12.19ZM99.251,81.649h8.056c6.042,0,9.169-2.757,9.169-7.421s-3.128-7.367-9.169-7.367H99.251ZM48.583,98.132v-37.1H64.8c12.031,0,20.246,7.42,20.246,18.55S76.832,98.132,64.8,98.132Zm6.89-5.83h9.01c8.268,0,13.621-5.035,13.621-12.72s-5.352-12.72-13.621-12.72h-9.01Z" transform="translate(3990.399 -495.132)" fill="#1d3557"/>
    <path id="Path_30" data-name="Path 30" d="M551.12,370.678H622.6c28.5,0,48.3-19.352,48.3-44.109,0-23.853-19.318-42.759-48.3-42.759H583.511L551.12,303.534Z" transform="translate(3301.052 -793.81)" fill="none"/>
    <path id="Path_31" data-name="Path 31" d="M639.538,516.54h-73.9v99.472h73.9c33.809,0,56.044-22.057,56.044-49.513C695.564,537.694,673.358,516.54,639.538,516.54Z" transform="translate(3294.835 -893.448)" fill="none"/>
    <path id="Path_32" data-name="Path 32" d="M552.176,685.875l-.154.1c25.78-3.231,42.273-22.875,42.273-46.819,0-27.519-19.775-47.729-49.879-47.729H478.65v95.029h0v-.572Z" transform="translate(3332.078 -925.51)" fill="none"/>
    <path id="Path_33" data-name="Path 33" d="M567.037,447.614c15.475-13.759,30.956-33.112,30.956-60.619a81.448,81.448,0,0,0-78.976-81.206L454.1,346.563h55.317c25.8,0,43,18.06,43,40.849,0,23.653-17.631,42.141-43,42.141H445.777V305.72H401.92V606.686h43.857V564.139h0V469.11h65.766c30.1,0,49.879,20.21,49.879,47.729,0,23.95-16.493,43.588-42.273,46.819l-62.923,43.028H518.88c48.609,0,88.143-41.713,88.143-89.87C607.023,485.02,590.685,460.509,567.037,447.614Z" transform="translate(3364.928 -803.19)" fill="#1d3557"/>
    <path id="Path_34" data-name="Path 34" d="M1397.5,740.59v43h6.028l67.275-43Z" transform="translate(2938.695 -989.369)" fill="none"/>
    <rect id="Rectangle_11" data-name="Rectangle 11" width="16.453" height="40.849" transform="translate(4467.521 -497.769)" fill="#1d3557"/>
    <rect id="Rectangle_12" data-name="Rectangle 12" width="15.189" height="42.999" transform="translate(4321.006 -239.779)" fill="#1d3557"/>
    <path id="Path_35" data-name="Path 35" d="M1476.848,414.586H1434.7c-25.368,0-43.857-18.06-43.857-42.136,0-21.6,14.869-38.344,36.257-41.57l74.916-41.421h-72.462a82.989,82.989,0,1,0,0,165.975h39.557c25.8,0,46.442,20.21,46.442,46.007a46.154,46.154,0,0,1-46.442,46.007h-20.29l-67.3,43h91.866c51.171,0,88.578-41.707,88.578-89.007C1561.983,455.006,1524.147,414.586,1476.848,414.586Z" transform="translate(2962.684 -787.229)" fill="#1d3557"/>
    <text id="i" transform="translate(3670 -196.506)" fill="#1d3557" font-size="240" font-family="CeraPro-Bold, Cera Pro" font-weight="700"><tspan x="0" y="0">i</tspan></text>
  </g>
</svg>
