<svg xmlns="http://www.w3.org/2000/svg" width="344.869" height="79.451" viewBox="0 0 344.869 79.451">
  <g id="Group_139" data-name="Group 139" transform="translate(-34.131 -125.549)">
    <g id="Group_54" data-name="Group 54" transform="translate(-11 -34.896)">
      <text id="_1" data-name="1" transform="translate(82 208.895)" fill="#1d3557" font-size="27" font-family="Futura-Medium, Futura" font-weight="500" letter-spacing="-0.02em"><tspan x="-8.332" y="0">1</tspan></text>
      <path id="Path_159" data-name="Path 159" d="M0,0H57.909" transform="translate(120.398 199.841)" fill="none" stroke="#0fa295" stroke-width="3"/>
      <g id="Ellipse_11" data-name="Ellipse 11" transform="translate(177 161.895)" fill="#1d3557" stroke="#1d3557" stroke-width="3">
        <circle cx="39" cy="39" r="39" stroke="none"/>
        <circle cx="39" cy="39" r="37.5" fill="none"/>
      </g>
      <line id="Line_9" data-name="Line 9" x2="58.879" transform="translate(253.831 200.955)" fill="none" stroke="#1d3557" stroke-width="3"/>
      <g id="Ellipse_12" data-name="Ellipse 12" transform="translate(312 161.895)" fill="#1d3557" stroke="#1d3557" stroke-width="3">
        <circle cx="39" cy="39" r="39" stroke="none"/>
        <circle cx="39" cy="39" r="37.5" fill="none"/>
      </g>
      <text id="_2" data-name="2" transform="translate(216 211.895)" fill="#fff" font-size="27" font-family="Futura-Medium, Futura" font-weight="500" letter-spacing="-0.02em"><tspan x="-8.332" y="0">2</tspan></text>
      <text id="_3" data-name="3" transform="translate(351 212.895)" fill="#fff" font-size="27" font-family="Futura-Medium, Futura" font-weight="500" letter-spacing="-0.02em"><tspan x="-8.332" y="0">3</tspan></text>
    </g>
    <g id="Atoms_Selectors_Selected" data-name="Atoms/ Selectors/ Selected" transform="translate(35.631 127.049)">
      <ellipse id="Oval" cx="37" cy="36.5" rx="37" ry="36.5" fill="#56c596" stroke="#56c596" stroke-width="3"/>
      <path id="Tick_Right" data-name="Tick Right" d="M26.189.786a2.747,2.747,0,0,1,3.847,0,2.658,2.658,0,0,1,0,3.8l-16.324,16.1a2.747,2.747,0,0,1-3.847,0L.8,11.738a2.658,2.658,0,0,1,0-3.8,2.747,2.747,0,0,1,3.847,0l7.145,7.048Z" transform="translate(21.583 25.854)" fill="#fff"/>
    </g>
  </g>
</svg>
