<svg xmlns="http://www.w3.org/2000/svg" width="344.869" height="79.451" viewBox="0 0 344.869 79.451">
  <g id="Group_141" data-name="Group 141" transform="translate(-34.131 -395.549)">
    <g id="Group_54" data-name="Group 54" transform="translate(-11 235.104)">
      <text id="_1" data-name="1" transform="translate(82 208.895)" fill="#1d3557" font-size="27" font-family="Futura-Medium, Futura" font-weight="500" letter-spacing="-0.02em"><tspan x="-8.332" y="0">1</tspan></text>
      <path id="Path_159" data-name="Path 159" d="M0,0H57.909" transform="translate(120.398 199.841)" fill="none" stroke="#56c596" stroke-width="3"/>
      <line id="Line_9" data-name="Line 9" x2="58.879" transform="translate(253.831 200.955)" fill="none" stroke="#56c596" stroke-width="3"/>
      <g id="Ellipse_12" data-name="Ellipse 12" transform="translate(312 161.895)" fill="#56c596" stroke="#56c596" stroke-width="3">
        <circle cx="39" cy="39" r="39" stroke="none"/>
        <circle cx="39" cy="39" r="37.5" fill="none"/>
      </g>
      <g id="Atoms_Selectors_Selected" data-name="Atoms/ Selectors/ Selected" transform="translate(46.631 161.944)">
        <circle id="Oval" cx="37" cy="37" r="37" fill="#56c596" stroke="#56c596" stroke-width="3"/>
        <path id="Tick_Right" data-name="Tick Right" d="M26.189.8a2.721,2.721,0,0,1,3.847,3.847L13.713,20.968a2.721,2.721,0,0,1-3.847,0L.8,11.9A2.721,2.721,0,1,1,4.644,8.052L11.789,15.2Z" transform="translate(21.583 26.208)" fill="#fff"/>
      </g>
      <path id="Tick_Right-2" data-name="Tick Right" d="M26.189.786a2.747,2.747,0,0,1,3.847,0,2.658,2.658,0,0,1,0,3.8l-16.324,16.1a2.747,2.747,0,0,1-3.847,0L.8,11.738a2.658,2.658,0,0,1,0-3.8,2.747,2.747,0,0,1,3.847,0l7.145,7.048Z" transform="translate(200.214 189.798)" fill="#fff"/>
    </g>
    <g id="Atoms_Selectors_Selected-2" data-name="Atoms/ Selectors/ Selected" transform="translate(167.631 397.05)">
      <circle id="Oval-2" data-name="Oval" cx="37" cy="37" r="37" fill="#56c596" stroke="#56c596" stroke-width="3"/>
      <path id="Tick_Right-3" data-name="Tick Right" d="M26.189.786a2.747,2.747,0,0,1,3.847,0,2.658,2.658,0,0,1,0,3.8l-16.324,16.1a2.747,2.747,0,0,1-3.847,0L.8,11.738a2.658,2.658,0,0,1,0-3.8,2.747,2.747,0,0,1,3.847,0l7.145,7.048Z" transform="translate(21.583 27.853)" fill="#fff"/>
      <path id="Tick_Right-4" data-name="Tick Right" d="M26.189.786a2.747,2.747,0,0,1,3.847,0,2.658,2.658,0,0,1,0,3.8l-16.324,16.1a2.747,2.747,0,0,1-3.847,0L.8,11.738a2.658,2.658,0,0,1,0-3.8,2.747,2.747,0,0,1,3.847,0l7.145,7.048Z" transform="translate(21.583 27.853)" fill="#fff"/>
    </g>
    <path id="Tick_Right-5" data-name="Tick Right" d="M26.189.786a2.747,2.747,0,0,1,3.847,0,2.658,2.658,0,0,1,0,3.8l-16.324,16.1a2.747,2.747,0,0,1-3.847,0L.8,11.738a2.658,2.658,0,0,1,0-3.8,2.747,2.747,0,0,1,3.847,0l7.145,7.048Z" transform="translate(326.214 424.9)" fill="#fff"/>
  </g>
</svg>
